name Run_400 02_newCOP3_v24.mot
datacolumns 19
datarows 85
range 4.0525 4.0945
DataType=double
version=3
OpenSimVersion=4.3-2021-08-27-4bc7ad9
endheader
time	R_ground_force_vx	R_ground_force_vy	R_ground_force_vz	R_ground_force_px	R_ground_force_py	R_ground_force_pz	L_ground_force_vx	L_ground_force_vy	L_ground_force_vz	L_ground_force_px	L_ground_force_py	L_ground_force_pz	R_ground_torque_x	R_ground_torque_y	R_ground_torque_z	L_ground_torque_x	L_ground_torque_y	L_ground_torque_z
4.0525	-116.628387	984.230042	-14.648541	1.089801	0	-0.326303	0	0	0	0	0	0	-0	1.997365	-0	0	0	0
4.053	-118.131317	1000.168152	-13.388161	1.088704	0	-0.326473	0	0	0	0	0	0	-0	1.858671	-0	0	0	0
4.0535	-119.712219	1015.832031	-12.105315	1.087605	0	-0.326641	0	0	0	0	0	0	-0	1.718261	-0	0	0	0
4.054	-121.373062	1031.211304	-10.802385	1.086504	0	-0.326808	0	0	0	0	0	0	-0	1.57628	-0	0	0	0
4.0545	-123.115005	1046.296753	-9.481809	1.085401	0	-0.326974	0	0	0	0	0	0	-0	1.43288	-0	0	0	0
4.055	-124.938362	1061.0802	-8.146067	1.084296	0	-0.327139	0	0	0	0	0	0	-0	1.288212	-0	0	0	0
4.0555	-126.842628	1075.554443	-6.797678	1.083189	0	-0.327303	0	0	0	0	0	0	-0	1.142431	-0	0	0	0
4.056	-128.826431	1089.713379	-5.439187	1.08208	0	-0.327466	0	0	0	0	0	0	-0	0.9956930000000001	-0	0	0	0
4.0565	-130.887558	1103.552124	-4.073155	1.080968	0	-0.327629	0	0	0	0	0	0	-0	0.848155	-0	0	0	0
4.057	-133.023026	1117.066772	-2.702153	1.079854	0	-0.327791	0	0	0	0	0	0	-0	0.699976	-0	0	0	0
4.0575	-135.229019	1130.254639	-1.328747	1.078737	0	-0.327954	0	0	0	0	0	0	-0	0.5513169999999999	-0	0	0	0
4.058	-137.501038	1143.114136	0.044507	1.077616	0	-0.328117	0	0	0	0	0	0	-0	0.402337	-0	0	0	0
4.0585	-139.833862	1155.644897	1.415076	1.076492	0	-0.328279	0	0	0	0	0	0	-0	0.2532	-0	0	0	0
4.059	-142.221634	1167.847656	2.780457	1.075363	0	-0.328443	0	0	0	0	0	0	-0	0.104066	-0	0	0	0
4.0595	-144.657974	1179.723877	4.13819	1.074229	0	-0.328606	0	0	0	0	0	0	0	-0.044902	0	0	0	0
4.06	-147.135986	1191.276611	5.48586	1.07309	0	-0.328771	0	0	0	0	0	0	0	-0.193542	0	0	0	0
4.0605	-149.648361	1202.509521	6.821114	1.071944	0	-0.328936	0	0	0	0	0	0	0	-0.341692	0	0	0	0
4.061	-152.187469	1213.42749	8.141665	1.070792	0	-0.329102	0	0	0	0	0	0	0	-0.48919	0	0	0	0
4.0615	-154.745407	1224.036377	9.445296000000001	1.069633	0	-0.329268	0	0	0	0	0	0	0	-0.635877	0	0	0	0
4.062	-157.314102	1234.342651	10.729879	1.068466	0	-0.329436	0	0	0	0	0	0	0	-0.781591	0	0	0	0
4.0625	-159.885422	1244.35376	11.99337	1.067291	0	-0.329605	0	0	0	0	0	0	0	-0.926175	0	0	0	0
4.063	-162.451172	1254.078125	13.233821	1.066106	0	-0.329774	0	0	0	0	0	0	0	-1.069472	0	0	0	0
4.0635	-165.003265	1263.524658	14.449384	1.064912	0	-0.329944	0	0	0	0	0	0	0	-1.211325	0	0	0	0
4.064	-167.533752	1272.703003	15.638319	1.063707	0	-0.330115	0	0	0	0	0	0	0	-1.351581	0	0	0	0
4.0645	-170.034851	1281.623413	16.798996	1.062492	0	-0.330287	0	0	0	0	0	0	0	-1.490088	0	0	0	0
4.065	-172.4991	1290.296631	17.929897	1.061265	0	-0.330459	0	0	0	0	0	0	0	-1.626696	0	0	0	0
4.0655	-174.919312	1298.733765	19.029625	1.060026	0	-0.330632	0	0	0	0	0	0	0	-1.761258	0	0	0	0
4.066	-177.288727	1306.946533	20.096901	1.058774	0	-0.330805	0	0	0	0	0	0	0	-1.893629	0	0	0	0
4.0665	-179.600937	1314.946655	21.130571	1.05751	0	-0.330977	0	0	0	0	0	0	0	-2.023667	0	0	0	0
4.067	-181.850021	1322.746216	22.129597	1.056232	0	-0.33115	0	0	0	0	0	0	0	-2.151234	0	0	0	0
4.0675	-184.030533	1330.357544	23.093073	1.054941	0	-0.331322	0	0	0	0	0	0	0	-2.276194	0	0	0	0
4.068	-186.137497	1337.793091	24.020206	1.053636	0	-0.331493	0	0	0	0	0	0	0	-2.398413	0	0	0	0
4.0685	-188.166458	1345.065063	24.910334	1.052318	0	-0.331664	0	0	0	0	0	0	0	-2.517763	0	0	0	0
4.069	-190.113449	1352.185791	25.762909	1.050985	0	-0.331832	0	0	0	0	0	0	0	-2.634119	0	0	0	0
4.0695	-191.975021	1359.16748	26.577505	1.049637	0	-0.332	0	0	0	0	0	0	0	-2.747359	0	0	0	0
4.07	-193.74823	1366.022095	27.353806	1.048276	0	-0.332164	0	0	0	0	0	0	0	-2.857364	0	0	0	0
4.0705	-195.430573	1372.761597	28.09161	1.0469	0	-0.332327	0	0	0	0	0	0	0	-2.964022	0	0	0	0
4.071	-197.020065	1379.397339	28.790825	1.04551	0	-0.332487	0	0	0	0	0	0	0	-3.067223	0	0	0	0
4.0715	-198.515121	1385.940308	29.451454	1.044106	0	-0.332643	0	0	0	0	0	0	0	-3.166861	0	0	0	0
4.072	-199.914581	1392.401489	30.073605	1.042689	0	-0.332796	0	0	0	0	0	0	0	-3.262835	0	0	0	0
4.0725	-201.217697	1398.791138	30.657476	1.041258	0	-0.332944	0	0	0	0	0	0	0	-3.355049	0	0	0	0
4.073	-202.424042	1405.118774	31.20335	1.039814	0	-0.333089	0	0	0	0	0	0	0	-3.443412	0	0	0	0
4.0735	-203.533539	1411.393921	31.71159	1.038357	0	-0.333228	0	0	0	0	0	0	0	-3.527837	0	0	0	0
4.074	-204.546371	1417.625244	32.182636	1.036888	0	-0.333362	0	0	0	0	0	0	0	-3.60824	0	0	0	0
4.0745	-205.463013	1423.820679	32.616997	1.035406	0	-0.333491	0	0	0	0	0	0	0	-3.684545	0	0	0	0
4.075	-206.28418	1429.987793	33.015236	1.033914	0	-0.333614	0	0	0	0	0	0	0	-3.756679	0	0	0	0
4.0755	-207.010757	1436.133423	33.377975	1.03241	0	-0.333731	0	0	0	0	0	0	0	-3.824575	0	0	0	0
4.076	-207.643799	1442.263794	33.705883	1.030896	0	-0.333842	0	0	0	0	0	0	0	-3.88817	0	0	0	0
4.0765	-208.18454	1448.384277	33.999676	1.029372	0	-0.333945	0	0	0	0	0	0	0	-3.947407	0	0	0	0
4.077	-208.634308	1454.499756	34.260094	1.027839	0	-0.334042	0	0	0	0	0	0	0	-4.002234	0	0	0	0
4.0775	-208.994522	1460.614258	34.487911	1.026296	0	-0.334132	0	0	0	0	0	0	0	-4.052603	0	0	0	0
4.078	-209.266693	1466.731445	34.683922	1.024746	0	-0.334215	0	0	0	0	0	0	0	-4.098474	0	0	0	0
4.0785	-209.452408	1472.853882	34.848934	1.023188	0	-0.33429	0	0	0	0	0	0	0	-4.139808	0	0	0	0
4.079	-209.553268	1478.983765	34.983776	1.021623	0	-0.334358	0	0	0	0	0	0	0	-4.176575	0	0	0	0
4.0795	-209.570908	1485.122437	35.089272	1.020051	0	-0.334418	0	0	0	0	0	0	0	-4.208749	0	0	0	0
4.08	-209.506989	1491.27063	35.166245	1.018473	0	-0.334471	0	0	0	0	0	0	0	-4.236309	0	0	0	0
4.0805	-209.36319	1497.428589	35.215515	1.01689	0	-0.334516	0	0	0	0	0	0	0	-4.259238	0	0	0	0
4.081	-209.141174	1503.595703	35.237896	1.015302	0	-0.334553	0	0	0	0	0	0	0	-4.277527	0	0	0	0
4.0815	-208.842621	1509.770996	35.234188	1.013709	0	-0.334584	0	0	0	0	0	0	0	-4.29117	0	0	0	0
4.082	-208.469193	1515.952881	35.205173	1.012113	0	-0.334607	0	0	0	0	0	0	0	-4.300167	0	0	0	0
4.0825	-208.022522	1522.139038	35.151619	1.010513	0	-0.334623	0	0	0	0	0	0	0	-4.304523	0	0	0	0
4.083	-207.504257	1528.326904	35.074268	1.008911	0	-0.334632	0	0	0	0	0	0	0	-4.304247	0	0	0	0
4.0835	-206.916	1534.513428	34.973843	1.007306	0	-0.334634	0	0	0	0	0	0	0	-4.299355	0	0	0	0
4.084	-206.259369	1540.694946	34.851036	1.005698	0	-0.33463	0	0	0	0	0	0	0	-4.289867	0	0	0	0
4.0845	-205.535934	1546.867554	34.70652	1.00409	0	-0.33462	0	0	0	0	0	0	0	-4.275808	0	0	0	0
4.085	-204.747253	1553.026978	34.540943	1.00248	0	-0.334604	0	0	0	0	0	0	0	-4.257208	0	0	0	0
4.0855	-203.894897	1559.168579	34.354927	1.000869	0	-0.334582	0	0	0	0	0	0	0	-4.234101	0	0	0	0
4.086	-202.980362	1565.287476	34.149067	0.999258	0	-0.334555	0	0	0	0	0	0	0	-4.206527	0	0	0	0
4.0865	-202.005188	1571.37854	33.923931	0.997646	0	-0.334523	0	0	0	0	0	0	0	-4.174529	0	0	0	0
4.087	-200.970856	1577.436401	33.680073	0.996034	0	-0.334487	0	0	0	0	0	0	0	-4.138157	0	0	0	0
4.0875	-199.878845	1583.455566	33.418018	0.9944229999999999	0	-0.334446	0	0	0	0	0	0	0	-4.097464	0	0	0	0
4.088	-198.730621	1589.43042	33.138275	0.992812	0	-0.334402	0	0	0	0	0	0	0	-4.052507	0	0	0	0
4.0885	-197.527649	1595.355225	32.841339	0.991202	0	-0.334354	0	0	0	0	0	0	0	-4.003348	0	0	0	0
4.089	-196.271362	1601.224365	32.527683	0.9895929999999999	0	-0.334303	0	0	0	0	0	0	0	-3.950053	0	0	0	0
4.0895	-194.963165	1607.03186	32.197777	0.987986	0	-0.33425	0	0	0	0	0	0	0	-3.892692	0	0	0	0
4.09	-193.604523	1612.772217	31.852072	0.986379	0	-0.334194	0	0	0	0	0	0	0	-3.83134	0	0	0	0
4.0905	-192.196793	1618.439575	31.491024	0.984774	0	-0.334136	0	0	0	0	0	0	0	-3.766074	0	0	0	0
4.091	-190.741409	1624.02832	31.115076	0.98317	0	-0.334077	0	0	0	0	0	0	0	-3.696977	0	0	0	0
4.0915	-189.239746	1629.532959	30.72468	0.981568	0	-0.334016	0	0	0	0	0	0	0	-3.624134	0	0	0	0
4.092	-187.693207	1634.948364	30.320282	0.979968	0	-0.333954	0	0	0	0	0	0	0	-3.547633	0	0	0	0
4.0925	-186.103165	1640.269043	29.90234	0.97837	0	-0.333892	0	0	0	0	0	0	0	-3.467568	0	0	0	0
4.093	-184.470978	1645.490112	29.471319	0.976773	0	-0.333829	0	0	0	0	0	0	0	-3.384035	0	0	0	0
4.0935	-182.798035	1650.606689	29.027697	0.975179	0	-0.333766	0	0	0	0	0	0	0	-3.297132	0	0	0	0
4.094	-181.085709	1655.61438	28.57196	0.973586	0	-0.333703	0	0	0	0	0	0	0	-3.206961	0	0	0	0
4.0945	-179.335342	1660.508789	28.104622	0.971996	0	-0.333641	0	0	0	0	0	0	0	-3.113628	0	0	0	0
